<?xml version="1.0" standalone="no"?>
<!DOCTYPE svg PUBLIC "-//W3C//DTD SVG 20010904//EN"
 "http://www.w3.org/TR/2001/REC-SVG-20010904/DTD/svg10.dtd">
<svg version="1.0" xmlns="http://www.w3.org/2000/svg"
 width="720.000000pt" height="754.000000pt" viewBox="0 0 720.000000 754.000000"
 preserveAspectRatio="xMidYMid meet">

<g transform="translate(0.000000,754.000000) scale(0.100000,-0.100000)"
fill="#000000" stroke="none">
<path d="M1482 7180 c-49 -11 -110 -58 -138 -106 -77 -131 -39 -298 137 -605
471 -822 1197 -1299 2019 -1326 488 -16 921 102 1320 361 372 241 712 614 945
1035 96 174 135 286 134 386 -1 75 -14 112 -61 168 -90 108 -248 116 -332 17
-15 -19 -45 -71 -66 -117 -47 -102 -128 -227 -206 -319 -32 -38 -68 -80 -79
-93 -11 -13 -65 -64 -120 -113 -388 -346 -883 -523 -1460 -521 -532 2 -982
146 -1330 426 -175 141 -363 368 -439 533 -16 32 -41 87 -57 121 -35 75 -94
128 -163 148 -54 16 -56 16 -104 5z"/>
<path d="M352 6017 c-46 -14 -121 -84 -143 -132 -33 -71 -19 -175 29 -228 9
-10 77 -50 152 -88 610 -312 988 -930 1029 -1684 24 -446 -57 -838 -247 -1191
-166 -306 -479 -599 -770 -720 -37 -15 -85 -39 -107 -54 -49 -32 -101 -106
-110 -159 -21 -127 105 -251 256 -251 78 0 161 26 304 94 311 149 585 346 830
598 231 236 381 458 493 728 221 532 214 1158 -18 1700 -172 402 -524 810
-950 1101 -349 239 -598 334 -748 286z"/>
<path d="M6635 6011 c-82 -24 -293 -127 -423 -207 -665 -411 -1072 -958 -1199
-1614 -35 -183 -44 -500 -18 -683 47 -345 155 -637 339 -921 246 -378 659
-744 1091 -965 260 -134 410 -144 519 -35 84 83 99 192 39 277 -24 35 -52 54
-167 112 -225 114 -394 249 -559 444 -178 211 -310 460 -386 728 -169 595 -93
1274 196 1756 164 274 427 518 693 644 153 72 157 74 190 106 63 62 89 157 61
228 -17 45 -73 101 -126 125 -62 29 -161 31 -250 5z"/>
<path d="M3395 2384 c-416 -62 -708 -171 -1020 -379 -301 -201 -595 -508 -813
-848 -146 -228 -233 -433 -234 -547 0 -205 226 -332 373 -210 25 20 53 62 87
134 96 198 238 381 423 544 475 420 1170 594 1885 472 612 -105 1114 -464
1350 -968 69 -145 84 -166 147 -202 144 -83 305 11 332 192 12 80 -17 179
-105 355 -218 439 -575 853 -945 1096 -262 172 -537 283 -837 338 -91 17 -162
21 -363 24 -137 2 -263 1 -280 -1z"/>
</g>
</svg>
